<svg version="1.2" xmlns="http://www.w3.org/2000/svg" viewBox="0 0 32 24" width="32" height="24">
	<title>logoIcon</title>
	<style>
		.s0 { fill: #5d87ff } 
		.s1 { mix-blend-mode: multiply;fill: #49beff } 
	</style>
	<path class="s0" d="m18 24c2.8 0 5.1-2.3 4.5-5q-0.4-2.1-1.3-4.2c-1.1-2.9-2.8-5.5-4.9-7.8-2.2-2.2-4.7-4-7.5-5.2q-1.9-0.8-3.8-1.2c-2.7-0.7-5 1.6-5 4.4v14c0 2.8 2.2 5 5 5z"/>
	<g>
		<path class="s1" d="m14 24c-2.8 0-5.1-2.3-4.5-5q0.4-2.1 1.3-4.2c1.1-2.9 2.8-5.5 4.9-7.8 2.2-2.2 4.7-4 7.5-5.2q1.9-0.8 3.8-1.2c2.7-0.7 5 1.6 5 4.4v14c0 2.8-2.2 5-5 5z"/>
	</g>
</svg>